<?xml version="1.0" encoding="UTF-8" standalone="no"?>
<svg
   data-v-2cb57da0=""
   version="1.0"
   width="126.374"
   height="53.516998"
   viewBox="0 0 126.37401 53.516996"
   preserveAspectRatio="xMidYMid"
   color-interpolation-filters="sRGB"
   id="svg122"
   sodipodi:docname="icon.svg"
   inkscape:version="1.2.1 (9c6d41e410, 2022-07-14)"
   inkscape:export-filename="icon.png"
   inkscape:export-xdpi="134.45804"
   inkscape:export-ydpi="134.45804"
   xmlns:inkscape="http://www.inkscape.org/namespaces/inkscape"
   xmlns:sodipodi="http://sodipodi.sourceforge.net/DTD/sodipodi-0.dtd"
   xmlns="http://www.w3.org/2000/svg"
   xmlns:svg="http://www.w3.org/2000/svg">
  <sodipodi:namedview
     id="namedview124"
     pagecolor="#ffffff"
     bordercolor="#000000"
     borderopacity="0.25"
     inkscape:showpageshadow="2"
     inkscape:pageopacity="0.0"
     inkscape:pagecheckerboard="true"
     inkscape:deskcolor="#d1d1d1"
     showgrid="false"
     inkscape:zoom="4.5183517"
     inkscape:cx="70.490307"
     inkscape:cy="26.669017"
     inkscape:window-width="1366"
     inkscape:window-height="716"
     inkscape:window-x="-8"
     inkscape:window-y="-8"
     inkscape:window-maximized="1"
     inkscape:current-layer="g118" />
  <g
     data-v-2cb57da0=""
     fill="#333333"
     class="iconlinesvg-g iconlinesvg"
     transform="translate(0.23143533,-0.44263932)"
     id="g118">
    <g
       class="tp-name"
       id="g108"
       transform="translate(-0.22131974,0.64263932)">
      <g
         transform="translate(0,1.2900901)"
         id="g82">
        <g
           id="g80">
          <g
             class="imagesvg"
             id="g78">
            <g
               id="g76">
              <rect
                 fill="#333333"
                 fill-opacity="0"
                 stroke-width="2"
                 x="0"
                 y="0"
                 width="46.853867"
                 height="51.839821"
                 class="image-rect"
                 id="rect64" />
              <svg
                 x="0"
                 y="0"
                 width="46.853867"
                 height="51.839821"
                 filtersec="colorsb1318493564"
                 class="image-svg-svg primary"
                 style="overflow:visible"
                 version="1.1"
                 id="svg74">
                <svg
                   viewBox="-0.01014185 0.0032704622 101.44771 112.24362"
                   version="1.1"
                   id="svg72"
                   width="100%"
                   height="100%">
                  <title
                     id="title66">资源 22</title>
                  <path
                     d="m 22.14,86.31 v 9.62 c 0,1.19 -0.45,1.89 -1.68,1.19 C 15,94 9.35,91.26 4.38,87.35 A 10.82,10.82 0 0 1 0,78.18 C 0.5,63.57 0.23,49 0.34,34.36 0.39,28.49 4,25 8.7,22.46 20.12,16.24 31.39,9.77 42.37,2.79 a 21.69,21.69 0 0 1 6.49,-2.62 c 2,-0.5 4,0.21 5.72,1 5.67,2.47 10.88,5.78 16.15,9 1.39,0.84 1.3,1.47 -0.26,2.34 C 61.91,17.26 53.31,21.95 44.78,26.77 39.1,29.92 33.31,33 28.55,37.58 a 19.27,19.27 0 0 0 -5.69,10.93 c -1.61,9.36 -1.13,18.77 -0.79,28.18 0.12,3.2 0,6.41 0,9.62 z m 79.25,-38.46 c -0.19,4 0,8.75 -0.26,13.5 -0.26,4.42 0.19,8.87 0.21,13.31 a 47.61,47.61 0 0 1 -0.47,5.7 11.86,11.86 0 0 1 -5.76,8.83 c -5.15,3.39 -10.61,6.26 -16,9.3 -5.39,3.04 -10.58,6.51 -15.9,9.71 -3.05,1.84 -6.06,3.69 -9.81,4 a 20.43,20.43 0 0 1 -10.52,-2.11 c -0.62,-0.27 -1.19,-0.66 -1.83,-0.9 a 2.71,2.71 0 0 1 -1.89,-2.84 c 0,-2.9 0.05,-5.8 0,-8.7 A 2.76,2.76 0 0 1 40.65,95 c 4,-2.29 8.07,-4.52 12,-6.93 7.35,-4.5 15.17,-8.34 21.29,-14.6 a 19.5,19.5 0 0 0 5.35,-11.08 c 1,-6.8 0.46,-13.51 0,-20.27 -0.23,-3.25 -0.07,-6.53 -0.13,-9.8 -0.07,-3.82 0.2,-7.65 -0.28,-11.46 a 16,16 0 0 1 0,-2.77 c 0.1,-3 0.65,-3.32 3.2,-1.76 4.52,2.75 9.27,5.1 13.57,8.23 3.94,2.87 5.58,6.8 5.75,11.46 0.09,3.69 -0.01,7.4 -0.01,11.83 z"
                     fill="#324681"
                     id="path68" />
                  <path
                     d="M 39.17,62.71 V 52.36 A 3.39,3.39 0 0 1 41,49 c 5.25,-3 10.47,-6 15.72,-9 1.44,-0.81 2.1,-0.3 2.11,1.69 v 17.75 c 0,5.92 0,5.83 -5.19,8.63 -4,2.17 -7.92,4.51 -11.86,6.79 -2.06,1.19 -2.57,0.94 -2.58,-1.46 -0.05,-3.54 -0.04,-7.11 -0.03,-10.69 z"
                     fill="#324681"
                     id="path70" />
                </svg>
              </svg>
              <!---->
            </g>
          </g>
        </g>
      </g>
      <g
         transform="translate(50)"
         id="g88">
        <g
           data-gra="path-name"
           fill="#333333"
           id="g86">
          <path
             d="M 5.94,0 Q 5.34,0 4.95,-0.39 4.56,-0.78 4.56,-1.38 v 0 -39.84 q 0,-0.66 0.39,-1.02 0.39,-0.36 0.99,-0.36 v 0 h 2.64 q 0.6,0 0.99,0.39 0.39,0.39 0.39,0.99 v 0 39.84 q 0,0.6 -0.39,0.99 Q 9.18,0 8.58,0 v 0 z"
             transform="translate(-4.56,43.02)"
             id="path84" />
        </g>
      </g>
      <g
         transform="translate(59)"
         id="g94">
        <g
           data-gra="path-name"
           fill="#333333"
           id="g92">
          <path
             d="m 5.4,-37.08 q -0.6,0 -0.99,-0.39 -0.39,-0.39 -0.39,-0.99 v 0 -3.12 q 0,-0.6 0.39,-1.02 0.39,-0.42 0.99,-0.42 v 0 h 3.54 q 0.6,0 1.02,0.42 0.42,0.42 0.42,1.02 v 0 3.12 q 0,0.6 -0.42,0.99 -0.42,0.39 -1.02,0.39 v 0 z M 5.88,0 Q 5.28,0 4.89,-0.39 4.5,-0.78 4.5,-1.38 v 0 -28.44 q 0,-0.6 0.39,-0.99 0.39,-0.39 0.99,-0.39 v 0 h 2.64 q 0.6,0 0.99,0.39 0.39,0.39 0.39,0.99 v 0 28.44 q 0,0.6 -0.39,0.99 Q 9.12,0 8.52,0 v 0 z"
             transform="translate(-4.02,43.02)"
             id="path90" />
        </g>
      </g>
      <g
         transform="translate(69)"
         id="g100">
        <g
           data-gra="path-name"
           fill="#333333"
           id="g98">
          <path
             d="m 17.16,0.6 q -6.6,0 -10.17,-3.72 -3.57,-3.72 -3.81,-9.9 v 0 l -0.06,-2.58 0.06,-2.58 q 0.24,-6.18 3.87,-9.9 3.63,-3.72 10.11,-3.72 v 0 q 6.48,0 10.11,3.72 3.63,3.72 3.87,9.9 v 0 q 0.12,1.32 0.12,2.58 v 0 q 0,1.26 -0.12,2.58 v 0 Q 30.9,-6.84 27.33,-3.12 23.76,0.6 17.16,0.6 Z m 0,-4.5 q 3.84,0 6.09,-2.43 2.25,-2.43 2.43,-6.99 v 0 q 0.06,-0.6 0.06,-2.28 v 0 q 0,-1.68 -0.06,-2.28 v 0 Q 25.5,-22.44 23.25,-24.87 21,-27.3 17.16,-27.3 v 0 q -3.84,0 -6.09,2.43 -2.25,2.43 -2.43,6.99 v 0 l -0.06,2.28 0.06,2.28 q 0.18,4.56 2.43,6.99 2.25,2.43 6.09,2.43 z"
             transform="translate(-3.12,43.02)"
             id="path96" />
        </g>
      </g>
      <g
         transform="translate(101)"
         id="g106">
        <g
           data-gra="path-name"
           fill="#333333"
           id="g104">
          <path
             d="M 15.18,0.6 Q 11.04,0.6 8.19,-0.75 5.34,-2.1 3.96,-3.84 2.58,-5.58 2.58,-6.72 v 0 q 0,-0.6 0.42,-0.93 0.42,-0.33 0.9,-0.33 v 0 h 2.52 q 0.36,0 0.57,0.12 0.21,0.12 0.57,0.54 v 0 q 1.38,1.68 3.09,2.64 1.71,0.96 4.59,0.96 v 0 q 3.24,0 5.19,-1.2 1.95,-1.2 1.95,-3.48 v 0 q 0,-1.5 -0.84,-2.4 -0.84,-0.9 -2.79,-1.62 -1.95,-0.72 -5.79,-1.56 v 0 q -5.22,-1.14 -7.38,-3.3 -2.16,-2.16 -2.16,-5.58 v 0 q 0,-2.22 1.32,-4.29 1.32,-2.07 3.93,-3.36 2.61,-1.29 6.21,-1.29 v 0 q 3.78,0 6.45,1.26 2.67,1.26 4.02,2.94 1.35,1.68 1.35,2.82 v 0 q 0,0.54 -0.39,0.9 -0.39,0.36 -0.93,0.36 v 0 H 23.1 q -0.84,0 -1.2,-0.66 v 0 q -1.02,-1.14 -1.71,-1.77 -0.69,-0.63 -2.01,-1.08 -1.32,-0.45 -3.3,-0.45 v 0 q -2.94,0 -4.5,1.23 -1.56,1.23 -1.56,3.27 v 0 q 0,1.26 0.66,2.13 0.66,0.87 2.52,1.62 1.86,0.75 5.52,1.53 v 0 q 5.7,1.2 8.07,3.42 2.37,2.22 2.37,5.7 v 0 q 0,2.58 -1.47,4.68 -1.47,2.1 -4.38,3.3 -2.91,1.2 -6.93,1.2 z"
             transform="translate(-2.58,43.02)"
             id="path102" />
        </g>
      </g>
    </g>
  </g>
  <defs
     v-gra="od"
     id="defs120" />
</svg>
